:SAMPLES-PER-SECOND 30
:FULLY-SPECIFIED
:DEGREES
47
root  5.4114 40.4897 -2.45368 -178.915 -87.8943 175.27
RightUpLeg  -3.8772 -10.8576 -10.2476
RightLeg  7.93646 -1.4293 2.80333
RightFoot  3.6348 -0.294058 2.42586
RightToes  0.000482159 0.542163 -0.142577
Spine  8.84738 0.18351 -0.801087
Spine1  -0.881651 0.626903 -2.34014
HEad  -46.6149 -7.88328 -1.04591
LeftShoulder1  7.71223 -11.7837 -43.9083
LeftArm  -12.9942 18.6495 -29.9839
LeftForeArm  57.3693 -49.1603 -8.81824
LeftHand  -0.25398 0.0180481 5.50724
RightShoulder  4.62487 8.3649 33.025
RightArm  1.05361 -13.2735 42.3856
RightForeArm  15.0599 23.2794 4.22083
RightHand  -0.477118 0.301451 -9.78353
LeftUpLeg  -5.53383 13.6289 1.58775
LeftLeg  13.4861 9.88444 1.02999
LeftFoot  -3.183 -0.0848481 1.32654
LeftToes  1.06246e-005 4.65855e-005 -8.18502e-006
48
root  5.7409 40.4081 -2.28226 176.598 -88.0118 179.211
RightUpLeg  -4.0427 -11.1139 -10.4037
RightLeg  8.45023 -1.20984 2.84587
RightFoot  3.79256 -0.279353 2.29783
RightToes  0.000482159 0.542163 -0.142577
Spine  9.50495 0.0546942 -1.03794
Spine1  -1.80081 0.461789 -2.34336
HEad  -47.046 -7.83483 -0.896635
LeftShoulder1  7.65684 -11.8429 -43.3986
LeftArm  -13.4615 18.7663 -29.4343
LeftForeArm  57.3094 -49.3079 -8.87684
LeftHand  -0.25398 0.0180481 5.50724
RightShoulder  4.58674 8.27487 32.9992
RightArm  1.05564 -13.2218 41.8682
RightForeArm  15.4128 24.4405 4.41772
RightHand  -0.41461 -0.260317 -9.37407
LeftUpLeg  -6.20631 14.8345 1.18443
LeftLeg  14.7011 8.53883 1.60928
LeftFoot  -3.31765 -0.101378 1.56565
LeftToes  1.06246e-005 4.65855e-005 -8.18502e-006
49
root  6.13832 40.3089 -2.09288 167.838 -88.2589 -172.756
RightUpLeg  -4.2368 -11.4438 -10.5119
RightLeg  9.15184 -1.09544 2.84999
RightFoot  4.18293 -0.318178 2.53966
RightToes  0.000482159 0.542163 -0.142577
Spine  10.5697 -0.172102 -1.68359
Spine1  -2.88808 0.0903055 -1.95584
HEad  -47.292 -7.75181 -0.665679
LeftShoulder1  7.6106 -11.9064 -42.9327
LeftArm  -14.0948 18.8841 -28.812
LeftForeArm  57.693 -50.4906 -9.31033
LeftHand  -0.25398 0.0180481 5.50724
RightShoulder  4.59377 8.26259 33.0992
RightArm  0.115162 -13.3983 41.255
RightForeArm  15.3521 27.1854 5.03257
RightHand  -0.428247 -0.521249 -10.1531
LeftUpLeg  -6.83923 15.8729 0.905003
LeftLeg  15.9809 7.07793 2.02165
LeftFoot  -3.5737 -0.122417 1.88841
LeftToes  1.06246e-005 4.65855e-005 -8.18502e-006
50
root  6.62034 40.1753 -1.90056 152.191 -88.4711 -158.004
RightUpLeg  -4.42526 -11.8984 -10.5227
RightLeg  9.89567 -0.857749 2.78252
RightFoot  4.84862 -0.408603 3.10664
RightToes  0.000482159 0.542163 -0.142577
Spine  12.1424 -0.483812 -3.02163
Spine1  -4.23205 -0.54417 -0.941262
HEad  -47.3663 -7.27792 -0.400609
LeftShoulder1  7.59061 -11.9714 -42.6217
LeftArm  -14.7711 19.0466 -28.0279
LeftForeArm  58.2684 -52.6446 -10.1654
LeftHand  -0.25398 0.0180481 5.50724
RightShoulder  4.61966 8.26435 33.3126
RightArm  -0.291975 -13.2625 40.6585
RightForeArm  14.6737 31.4803 6.09117
RightHand  -0.453529 -0.767991 -11.3044
LeftUpLeg  -7.55591 16.8866 0.795018
LeftLeg  17.524 5.96358 2.30651
LeftFoot  -3.68559 -0.18319 2.8465
LeftToes  1.06246e-005 4.65855e-005 -8.18502e-006
51
root  7.17914 39.9926 -1.70675 129.932 -88.5787 -136.55
RightUpLeg  -5.02396 -12.8448 -10.3878
RightLeg  11.2427 -0.231388 2.62568
RightFoot  4.98032 -0.418386 3.15333
RightToes  0.000482159 0.542163 -0.142577
Spine  13.7119 -0.92564 -5.05754
Spine1  -5.58299 -1.48288 0.76736
HEad  -47.1176 -6.33022 -0.250155
LeftShoulder1  7.56952 -12.0715 -42.2044
LeftArm  -15.6091 19.3636 -27.3371
LeftForeArm  59.0189 -55.4301 -11.4107
LeftHand  -0.25398 0.0180481 5.50724
RightShoulder  4.59393 8.17738 33.3838
RightArm  0.736892 -12.1665 40.6867
RightForeArm  13.8409 36.5173 7.47796
RightHand  -0.462294 -1.09564 -12.344
LeftUpLeg  -8.78708 17.5015 0.756482
LeftLeg  19.5899 5.42613 2.48401
LeftFoot  -3.55851 -0.243132 3.81318
LeftToes  1.06246e-005 4.65855e-005 -8.18502e-006
